<svg xmlns="http://www.w3.org/2000/svg" version="1.1">
  <rect
     width="364.1373"
     height="91.659218"
     x="-163.43195"
     y="95.538696"
     fill="blue" />
  <rect
     width="5.8586302"
     height="6.614583"
     x="20.169592"
     y="180.7007"
     fill="black" />
  <rect
     fill="black"
     width="23.62351"
     height="3.0238097"
     x="45.26265"
     y="163.29092" />
  <rect
     width="23.623512"
     height="3.0238097"
     x="65.788681"
     y="145.82112"
     fill="black" />
  <rect
     fill="black"
     width="6.0476193"
     height="5.8586311"
     x="106.3058"
     y="167.16518" />
  <rect
     fill="black"
     width="5.8586302"
     height="6.6145835"
     x="87.406998"
     y="180.48885" />
  <rect
     width="23.623512"
     height="3.0238097"
     x="134.56187"
     y="144.09483"
     fill="black" />
  <rect
     fill="black"
     width="6.0476193"
     height="30.049107"
     x="112.25893"
     y="157.05432" />
  <rect
     width="31.938988"
     height="3.0238097"
     x="169.56508"
     y="157.1488"
     fill="black" />
  <rect
     width="6.0476213"
     height="61.799107"
     x="195.45644"
     y="95.349701"
     fill="black" />
  <rect
     width="12.095239"
     height="5.8586311"
     x="183.96249"
     y="129.62816"
     fill="black" />
  <rect
     fill="black"
     width="23.623512"
     height="3.0238097"
     x="-99.391457"
     y="142.34219" />
  <rect
     fill="black"
     width="23.623512"
     height="3.0238097"
     x="-19.438873"
     y="142.55589" />
  <rect
     fill="black"
     width="10.519648"
     height="11.805261"
     x="-102.08186"
     y="175.2944" />
  <rect
     fill="black"
     width="23.623512"
     height="3.0238097"
     x="-136.36232"
     y="160.53685" />
  <rect
     fill="black"
     width="6.0476193"
     height="30.049107"
     x="-52.17635"
     y="157.00935" />
  <circle
     cx="-157.00168"
     cy="182.24609"
     r="4.7036037"
     fill="green" />
  <circle
     cx="-57.826958"
     cy="182.39592"
     r="4.7036037"
     fill="red" />
  <rect
     width="5.8586302"
     height="6.614583"
     x="-46.524246"
     y="167.703"
     fill="black" />
  <circle
     cx="-36.853447"
     cy="182.54573"
     r="4.7036037"
     fill="red" />
  <circle
     cx="37.752312"
     cy="120.52407"
     r="4.7036037"
     fill="red" />
  <rect
     fill="black"
     width="23.62351"
     height="3.0238097"
     x="26.090366"
     y="125.30422" />
  <circle
     cx="129.28668"
     cy="182.54572"
     r="4.7036037"
     fill="red" />
  <circle
     cx="189.66042"
     cy="124.86858"
     r="4.7036037"
     fill="red" />
  <circle
     cx="79.399704"
     cy="182.39592"
     r="4.7036037"
     fill="red" />
  <circle
     cx="51.984333"
     cy="157.97676"
     r="4.7036037"
     fill="red" />
</svg>
