<svg xmlns="http://www.w3.org/2000/svg" version="1.1">
  <rect
     width="364.1373"
     height="91.659218"
     x="0"
     y="0.18899536"
     fill="blue"
     id="rect2" />
  <rect
     width="5.8586302"
     height="6.614583"
     x="183.60153"
     y="85.350998"
     fill="black"
     id="rect4" />
  <rect
     fill="black"
     width="23.62351"
     height="3.0238097"
     x="228.44383"
     y="61.70462"
     id="rect6" />
  <rect
     width="23.623512"
     height="3.0238097"
     x="161.05626"
     y="62.180862"
     fill="black"
     id="rect8" />
  <rect
     fill="black"
     width="6.0476193"
     height="5.8586311"
     x="269.73773"
     y="71.815475"
     id="rect10" />
  <rect
     fill="black"
     width="5.8586302"
     height="6.6145835"
     x="250.83894"
     y="85.139145"
     id="rect12" />
  <rect
     width="23.623512"
     height="3.0238097"
     x="252.06734"
     y="61.70462"
     fill="black"
     id="rect14" />
  <rect
     fill="black"
     width="6.0476193"
     height="30.049107"
     x="275.69086"
     y="61.70462"
     id="rect16" />
  <rect
     width="31.938988"
     height="3.0238097"
     x="316.08478"
     y="62.075779"
     fill="black"
     id="rect18" />
  <rect
     width="6.0476213"
     height="61.799107"
     x="316.08478"
     y="0.27667248"
     fill="black"
     id="rect20" />
  <rect
     width="12.095239"
     height="5.8586311"
     x="281.60693"
     y="71.186325"
     fill="black"
     id="rect22" />
  <rect
     fill="black"
     width="23.623512"
     height="3.0238097"
     x="70.832497"
     y="55.485706"
     id="rect24" />
  <rect
     fill="black"
     width="23.623512"
     height="3.0238097"
     x="204.82031"
     y="61.70462"
     id="rect26" />
  <rect
     fill="black"
     width="10.519648"
     height="41.618958"
     x="150.55696"
     y="50.426773"
     id="rect28" />
  <rect
     fill="black"
     width="23.623512"
     height="3.0238097"
     x="32.320133"
     y="67.520714"
     id="rect30" />
  <rect
     fill="black"
     width="6.0476193"
     height="30.049107"
     x="111.25559"
     y="61.659653"
     id="rect32" />
  <circle
     cx="6.4302673"
     cy="86.896393"
     r="4.7036037"
     fill="green"
     id="circle34" />
  <circle
     cx="43.291641"
     cy="40.678047"
     r="4.7036037"
     fill="red"
     id="circle36" />
  <rect
     width="11.809148"
     height="2.6644082"
     x="117.03092"
     y="72.302025"
     fill="black"
     id="rect38" />
  <circle
     cx="126.41403"
     cy="86.857254"
     r="4.7036037"
     fill="red"
     id="circle40" />
  <circle
     cx="201.18425"
     cy="24.937391"
     r="4.7036037"
     fill="red"
     id="circle42" />
  <rect
     fill="black"
     width="23.62351"
     height="3.0238097"
     x="189.52231"
     y="29.954521"
     id="rect44" />
  <circle
     cx="292.86789"
     cy="86.690155"
     r="4.7036037"
     fill="red"
     id="circle46" />
  <circle
     cx="274.1008"
     cy="56.709282"
     r="4.7036037"
     fill="red"
     id="circle48" />
  <circle
     cx="242.73294"
     cy="86.804497"
     r="4.7036037"
     fill="red"
     id="circle50" />
  <circle
     cx="166.70596"
     cy="86.861511"
     r="4.7036037"
     fill="red"
     id="circle52" />
</svg>
